<?xml version="1.0" encoding="utf-8"?>
<!-- Generator: Adobe Illustrator 16.0.0, SVG Export Plug-In . SVG Version: 6.00 Build 0)  -->
<!DOCTYPE svg PUBLIC "-//W3C//DTD SVG 1.1//EN" "http://www.w3.org/Graphics/SVG/1.1/DTD/svg11.dtd">
<svg version="1.1" id="Layer_1" xmlns="http://www.w3.org/2000/svg" xmlns:xlink="http://www.w3.org/1999/xlink" x="0px" y="0px"
	 width="82.388px" height="68px" viewBox="0 0 82.388 68" enable-background="new 0 0 82.388 68" xml:space="preserve">
<g>
	<path fill-rule="evenodd" clip-rule="evenodd" fill="#D49B31" d="M60.565,20.202c0.812,2.724-0.187,3.734-3.021,3.712
		c-11.625-0.091-23.25-0.027-34.876-0.05c-1.948-0.004-4.169,0.083-2.634-3.023c12.229-0.004,24.455,0.003,36.686-0.029
		c1.087-0.001,2.306,0.418,3.221-0.609C60.148,20.202,60.357,20.202,60.565,20.202z"/>
	<path fill-rule="evenodd" clip-rule="evenodd" fill="#D49B31" d="M59.941,20.202c-0.915,1.027-2.134,0.608-3.221,0.609
		c-12.23,0.032-24.457,0.025-36.686,0.029c-0.014-0.212-0.028-0.425-0.041-0.639C33.311,20.202,46.626,20.202,59.941,20.202z"/>
	<path fill-rule="evenodd" clip-rule="evenodd" fill="#D49B31" d="M40.283,42.764c-7.383,0.001-14.766,0.016-22.149-0.021
		c-0.855-0.004-2.021,0.47-2.472-0.686c-0.422-1.091,0.695-1.562,1.217-2.297c3.115-4.389,7.249-5.676,12.603-5.41
		c8.816,0.438,17.673,0.11,26.511,0.125c2.103,0.002,8.669,4.883,9.039,6.857c0.384,2.062-1.363,1.394-2.286,1.399
		C55.259,42.788,47.771,42.764,40.283,42.764z"/>
	<path fill-rule="evenodd" clip-rule="evenodd" fill="#D49B31" d="M39.994,33.25c-5.82,0-11.639,0.009-17.46-0.008
		c-1.335-0.002-3.014,0.193-3.008-1.771c0.007-1.877,1.587-1.848,2.983-1.848c11.848,0.007,23.694,0.005,35.543,0
		c1.271,0,2.716-0.128,2.811,1.634c0.104,1.928-1.329,2.008-2.784,2.001C52.051,33.237,46.021,33.25,39.994,33.25z"/>
	<path fill-rule="evenodd" clip-rule="evenodd" fill="#D49B31" d="M40.021,28.408c-5.914,0-11.826,0.001-17.74-0.002
		c-1.24-0.002-2.73,0.19-2.738-1.646c-0.008-1.837,1.469-1.654,2.717-1.654c11.932,0,23.861-0.004,35.791,0.007
		c1.199,0.002,2.681-0.318,2.69,1.628c0.012,1.943-1.467,1.655-2.669,1.657C52.055,28.418,46.037,28.406,40.021,28.408z"/>
	<path fill-rule="evenodd" clip-rule="evenodd" fill="#D49B31" d="M64.315,48.953c-0.004,1.038-0.01,2.078-0.002,3.117
		c0.012,1.242-0.764,1.599-1.82,1.604c-1.026,0.005-1.9-0.25-1.912-1.512c-0.023-2.285-0.013-4.572-0.02-6.859
		c-0.004-1.342,0.8-1.863,1.993-1.823c1.254,0.044,1.829,0.764,1.774,2.041C64.278,46.664,64.321,47.808,64.315,48.953z"/>
	<path fill-rule="evenodd" clip-rule="evenodd" fill="#D49B31" d="M16.143,48.521c0.001-1.035,0.022-2.072-0.004-3.108
		c-0.037-1.293,0.617-1.939,1.855-1.946c1.255-0.006,1.906,0.708,1.918,1.946c0.022,2.072,0.008,4.145,0.006,6.216
		c-0.004,1.387-0.641,2.122-2.093,2.06c-1.351-0.057-1.746-0.837-1.694-2.06C16.174,50.593,16.141,49.557,16.143,48.521z"/>
	<path fill-rule="evenodd" clip-rule="evenodd" fill="#D49B31" d="M26.984,46.782c-0.21,1.149,0.584,2.809-1.682,2.876
		c-2.529,0.073-2.062-1.695-2.111-3.175c-0.05-1.508-0.045-3.104,2.066-2.994C27.482,43.606,26.851,45.432,26.984,46.782z"/>
	<path fill-rule="evenodd" clip-rule="evenodd" fill="#D49B31" d="M56.94,46.842c-0.08,1.333,0.402,2.834-1.801,2.834
		c-2.308,0-1.977-1.553-1.993-2.956c-0.018-1.489,0.125-3.251,1.93-3.275C57.331,43.414,56.832,45.464,56.94,46.842z"/>
</g>
</svg>
