<?xml version="1.0" encoding="utf-8"?>
<!-- Generator: Adobe Illustrator 16.0.0, SVG Export Plug-In . SVG Version: 6.00 Build 0)  -->
<!DOCTYPE svg PUBLIC "-//W3C//DTD SVG 1.1//EN" "http://www.w3.org/Graphics/SVG/1.1/DTD/svg11.dtd">
<svg version="1.1" id="Layer_1" xmlns="http://www.w3.org/2000/svg" xmlns:xlink="http://www.w3.org/1999/xlink" x="0px" y="0px"
	 width="123.138px" height="112.746px" viewBox="0 0 123.138 112.746" enable-background="new 0 0 123.138 112.746"
	 xml:space="preserve">
<g>
	<path fill="#E7B435" d="M90.61,33.481H34.434c-2.983,0-5.411,2.429-5.411,5.412v6.019v7.448v21.493
		c0,2.984,2.428,5.412,5.411,5.412H90.61c2.983,0,5.412-2.428,5.412-5.412V52.36v-7.448v-6.019
		C96.022,35.91,93.594,33.481,90.61,33.481 M34.434,36.481H90.61c1.33,0,2.412,1.082,2.412,2.412v4.519h-61v-4.519
		C32.022,37.563,33.104,36.481,34.434,36.481 M93.022,50.86h-61v-4.447h61V50.86z M90.61,76.266H34.434
		c-1.329,0-2.411-1.082-2.411-2.412V53.86h61v19.993C93.022,75.184,91.94,76.266,90.61,76.266"/>
	<path fill="#E7B435" d="M84.523,60.323H69.002c-0.83,0-1.5,0.672-1.5,1.5s0.67,1.5,1.5,1.5h15.521c0.828,0,1.5-0.672,1.5-1.5
		S85.352,60.323,84.523,60.323"/>
	<path fill="#E7B435" d="M84.523,68.323h-8.889c-0.828,0-1.5,0.672-1.5,1.5s0.672,1.5,1.5,1.5h8.889c0.828,0,1.5-0.672,1.5-1.5
		S85.352,68.323,84.523,68.323"/>
</g>
</svg>
