<?xml version="1.0" encoding="utf-8"?>
<!-- Generator: Adobe Illustrator 16.0.0, SVG Export Plug-In . SVG Version: 6.00 Build 0)  -->
<!DOCTYPE svg PUBLIC "-//W3C//DTD SVG 1.1//EN" "http://www.w3.org/Graphics/SVG/1.1/DTD/svg11.dtd">
<svg version="1.1" id="Layer_1" xmlns="http://www.w3.org/2000/svg" xmlns:xlink="http://www.w3.org/1999/xlink" x="0px" y="0px"
	 width="123.138px" height="112.746px" viewBox="0 0 123.138 112.746" enable-background="new 0 0 123.138 112.746"
	 xml:space="preserve">
<path fill="#E7B435" d="M82.437,69.271H60.878c0.125-0.098,0.225-0.188,0.297-0.26l10.721-11.105
	c0.811-0.84,0.783-1.593,0.619-2.076c-0.104-0.306-0.465-1.034-1.547-1.194c-0.074-0.011-0.146-0.017-0.22-0.017h-4.547V30.161
	c0-0.828-0.672-1.5-1.5-1.5H53.675c-0.828,0-1.5,0.672-1.5,1.5v24.457h-4.389c-0.061,0-0.119,0.004-0.179,0.011
	c-1.19,0.143-1.582,0.898-1.695,1.217c-0.144,0.401-0.255,1.207,0.599,2.093l10.662,11.041c0.115,0.12,0.23,0.199,0.346,0.291
	H35.981c-2.117,0-3.84,1.722-3.84,3.839v7.137c0,2.117,1.723,3.839,3.84,3.839h46.455c2.117,0,3.84-1.722,3.84-3.839v-7.137
	C86.276,70.992,84.554,69.271,82.437,69.271 M50.374,57.618h3.301c0.83,0,1.5-0.672,1.5-1.5V31.661h8.026v24.457
	c0,0.828,0.672,1.5,1.5,1.5h3.304l-8.818,9.128L50.374,57.618z M83.276,80.246c0,0.463-0.377,0.839-0.84,0.839H35.981
	c-0.463,0-0.84-0.376-0.84-0.839v-7.137c0-0.463,0.377-0.839,0.84-0.839h46.455c0.463,0,0.84,0.376,0.84,0.839V80.246z"/>
</svg>
