<?xml version="1.0" encoding="utf-8"?>
<!-- Generator: Adobe Illustrator 16.0.0, SVG Export Plug-In . SVG Version: 6.00 Build 0)  -->
<!DOCTYPE svg PUBLIC "-//W3C//DTD SVG 1.1//EN" "http://www.w3.org/Graphics/SVG/1.1/DTD/svg11.dtd">
<svg version="1.1" id="Layer_1" xmlns="http://www.w3.org/2000/svg" xmlns:xlink="http://www.w3.org/1999/xlink" x="0px" y="0px"
	 width="173.991px" height="128.993px" viewBox="0 0 173.991 128.993" enable-background="new 0 0 173.991 128.993"
	 xml:space="preserve">
<g>
</g>
<g>
	<g>
		<path fill-rule="evenodd" clip-rule="evenodd" fill="#808080" d="M72.996,86.772c-3.603,3.479-5.595,7.974-7.842,12.319
			c-0.542,1.047-0.569,3.033-2.353,2.559c-1.517-0.404-1.676-2.104-1.773-3.562c-0.242-3.599,1.569-6.488,3.219-9.432
			c0.955-1.703,1.944-3.388,2.918-5.078c0.631-0.369,0.818-0.944,0.598-1.591c-0.115-0.334-0.44-0.325-0.682-0.025
			c-5.476,3.521-8.423,9-11.244,14.569c-0.59,1.165-1.059,2.393-1.674,3.545c-0.655,1.227-1.692,1.625-2.472,0.271
			c-0.958-1.662-1.906-1.161-3.208-0.554c-3.234,1.504-6.529,2.344-10.088,0.811c-2.699-1.163-3.326-3.879-4.898-5.886
			c0-1.76,0-3.518,0-5.277c1.449-1.176,1.502-3.069,2.328-4.575c1.837-3.358,4.214-6.133,7.588-8.014
			c2.687-1.502,5.15-1.381,7.597,0.628c2.628,2.16,3.394,4.597,2.124,7.85c-1.951,5-6.123,7.66-11.221,6.725
			c-1.357-0.25-2.237-0.078-2.298,1.388c-0.083,2.012-0.067,4.144,2.514,4.668c1.675,0.339,3.27-0.224,4.683-1.163
			c2.501-1.67,4.606-3.684,5.846-6.52c1.893-4.331,4.185-8.458,6.765-12.416c0.616-0.945,0.962-2.503,2.494-2.238
			c1.416,0.246,1.566,1.664,1.856,2.834c0.099,0.397,0.172,0.8,0.286,1.342c1.372-0.973,2.566-1.939,3.871-2.716
			c3.132-1.854,4.559-1.582,6.354,1.512c0.685,1.183,1.159,0.99,2.004,0.474c1.396-0.858,2.734-1.884,4.236-2.49
			c2.664-1.072,4.188,0.021,4.516,2.862c0.337,2.933-0.939,5.333-2.339,7.722c-1.435,2.458-3.259,4.709-4.12,7.472
			c-0.319,1.024-0.679,2.262,0.485,3.001c1.236,0.788,2.024-0.332,2.829-1.006c1.464-1.227,2.334-2.876,3.104-4.598
			c2.012-4.516,4.256-8.918,6.921-13.084c0.793-1.237,1.171-3.256,2.925-3.262c2.157-0.008,1.6,2.473,2.457,3.697
			c8.262-4.492,8.262-4.492,11.043,0.391c1.712-1.189,3.352-2.505,5.334-3.223c2.554-0.926,4.007-0.099,4.526,2.568
			c0.422,2.164-0.202,4.137-1.239,5.998c-1.653,2.969-3.423,5.875-4.978,8.895c-0.57,1.105-1.245,2.657,0.177,3.588
			c1.543,1.007,2.338-0.623,3.228-1.467c2.023-1.929,3.246-4.394,4.365-6.912c2.195-4.942,5.479-8.994,10.04-11.919
			c2.59-1.661,5.348-2.839,8.142-0.374c0.849,0.749,1.242,0.375,1.832-0.276c1.854-2.056,2.74-0.81,3.414,1.065
			c0.957,2.664-0.168,4.963-1.345,7.201c-1.631,3.107-3.457,6.113-5.026,9.248c-0.535,1.067-1.718,2.674-0.409,3.545
			c1.507,1.001,2.559-0.772,3.424-1.779c1.279-1.488,2.305-3.195,3.458-4.796c0.449-0.625,0.949-1.385,1.839-1.069
			c0.967,0.34,1.096,1.254,1.05,2.186c-0.224,4.4-6.06,9.836-10.374,9.488c-2.363-0.189-3.504-2.3-4.986-3.785
			c-5.918,4.19-7.609,4.261-11.462,0.522c-0.293-0.666-0.591-0.612-0.886-0.002c-1.537,0.82-3.002,1.849-4.629,2.411
			c-2.425,0.839-4.803,0.46-6.677-1.452c-1.686-1.718-1.877-3.754-1.243-6.071c0.854-3.14,2.839-5.645,4.328-8.428
			c0.299-0.56,0.926-1.189,0.365-1.749c-0.777-0.777-1.374,0.087-1.888,0.553c-4.621,4.212-7.683,9.499-10.36,15.059
			c-0.532,1.104-0.689,3.073-2.316,2.68c-1.589-0.385-1.867-2.184-1.939-3.8c-0.112-2.408,0.767-4.516,1.87-6.539
			c1.414-2.592,2.937-5.125,4.411-7.684c0.384-0.566,1.41-1.145,0.729-1.799c-0.69-0.668-1.262,0.283-1.754,0.805
			c-5.419,3.94-8.329,9.675-11.085,15.519c-0.835,1.771-1.16,4.388-4.135,2.02c-0.833-0.663-1.866,0.325-2.741,0.673
			c-2.698,1.067-5.212,0.795-7.318-1.146c-2.128-1.949-2.108-4.462-1.065-6.958c0.836-2.004,1.852-3.931,2.784-5.893
			c1.174-1.558,2.594-2.98,3.019-5.612C76.337,83.072,74.473,84.711,72.996,86.772z M111.652,82.526
			c0.258-0.259,0.412-0.537,0.034-0.798c-0.036-0.025-0.282,0.256-0.429,0.395c-0.201,0.206-0.601,0.559-0.575,0.593
			C111.103,83.277,111.365,82.809,111.652,82.526z M135.961,80.861c-2.169-0.226-3.048,1.063-3.999,2.001
			c-3.613,3.569-6.665,7.512-7.549,12.715c-0.125,0.736-0.309,1.592,0.491,2.049c0.268,0.152,0.894-0.003,1.177-0.236
			C131.283,93.061,134.228,87.439,135.961,80.861z M48.606,80.1c-3.609,2.118-5.689,4.583-7.124,7.812
			C44.777,87.869,47.279,85.274,48.606,80.1z"/>
		<g>
			<path fill-rule="evenodd" clip-rule="evenodd" fill="#808080" d="M113.61,21.878c0.937,3.143-0.215,4.311-3.486,4.283
				c-13.416-0.104-26.832-0.03-40.249-0.056c-2.249-0.006-4.812,0.094-3.041-3.491c14.113-0.003,28.225,0.004,42.339-0.032
				c1.255-0.003,2.661,0.481,3.719-0.704C113.13,21.878,113.369,21.878,113.61,21.878z"/>
			<path fill-rule="evenodd" clip-rule="evenodd" fill="#808080" d="M112.892,21.878c-1.058,1.186-2.464,0.701-3.719,0.704
				c-14.114,0.036-28.226,0.029-42.339,0.032c-0.015-0.243-0.031-0.489-0.046-0.736C82.155,21.878,97.523,21.878,112.892,21.878z"/>
			<path fill-rule="evenodd" clip-rule="evenodd" fill="#808080" d="M90.203,47.915c-8.521,0.002-17.041,0.019-25.562-0.022
				c-0.987-0.006-2.333,0.54-2.853-0.793c-0.487-1.258,0.803-1.804,1.404-2.65c3.596-5.066,8.366-6.551,14.544-6.243
				c10.174,0.505,20.395,0.126,30.596,0.144c2.424,0.004,10.004,5.636,10.431,7.914c0.443,2.38-1.574,1.607-2.638,1.615
				C107.486,47.943,98.846,47.915,90.203,47.915z"/>
			<path fill-rule="evenodd" clip-rule="evenodd" fill="#808080" d="M89.868,36.937c-6.716,0-13.432,0.01-20.149-0.01
				c-1.54-0.004-3.478,0.223-3.471-2.044c0.009-2.167,1.831-2.132,3.443-2.132c13.672,0.007,27.346,0.006,41.02,0
				c1.465,0,3.132-0.147,3.242,1.886c0.121,2.223-1.532,2.317-3.213,2.31C103.783,36.922,96.826,36.937,89.868,36.937z"/>
			<path fill-rule="evenodd" clip-rule="evenodd" fill="#808080" d="M89.9,31.348c-6.825,0-13.648,0.002-20.474-0.003
				c-1.431-0.001-3.15,0.222-3.16-1.897c-0.008-2.12,1.695-1.909,3.137-1.909c13.769,0,27.538-0.005,41.305,0.008
				c1.384,0.002,3.092-0.367,3.105,1.879c0.013,2.242-1.694,1.909-3.081,1.913C103.788,31.359,96.844,31.347,89.9,31.348z"/>
			<path fill-rule="evenodd" clip-rule="evenodd" fill="#808080" d="M117.938,55.057c-0.005,1.199-0.012,2.399-0.002,3.6
				c0.013,1.434-0.882,1.844-2.102,1.851c-1.184,0.007-2.192-0.288-2.207-1.744c-0.026-2.638-0.015-5.277-0.022-7.917
				c-0.004-1.549,0.924-2.15,2.302-2.103c1.446,0.05,2.111,0.88,2.047,2.355C117.896,52.416,117.943,53.736,117.938,55.057z"/>
			<path fill-rule="evenodd" clip-rule="evenodd" fill="#808080" d="M62.342,54.56c0.002-1.195,0.027-2.392-0.004-3.589
				c-0.042-1.49,0.714-2.238,2.143-2.244c1.447-0.008,2.199,0.816,2.213,2.244c0.025,2.392,0.009,4.784,0.007,7.175
				c-0.005,1.601-0.74,2.448-2.416,2.376c-1.559-0.064-2.015-0.966-1.956-2.376C62.379,56.951,62.34,55.755,62.342,54.56z"/>
			<path fill-rule="evenodd" clip-rule="evenodd" fill="#808080" d="M74.855,52.552c-0.242,1.328,0.674,3.242-1.941,3.319
				c-2.918,0.085-2.379-1.955-2.437-3.664c-0.058-1.738-0.052-3.581,2.385-3.454C75.43,48.887,74.7,50.992,74.855,52.552z"/>
			<path fill-rule="evenodd" clip-rule="evenodd" fill="#808080" d="M109.427,52.622c-0.093,1.538,0.464,3.271-2.078,3.271
				c-2.663,0-2.282-1.793-2.301-3.412c-0.02-1.717,0.145-3.752,2.228-3.779C109.877,48.666,109.3,51.03,109.427,52.622z"/>
		</g>
	</g>
</g>
</svg>
