<?xml version="1.0" encoding="utf-8"?>
<!-- Generator: Adobe Illustrator 16.0.0, SVG Export Plug-In . SVG Version: 6.00 Build 0)  -->
<!DOCTYPE svg PUBLIC "-//W3C//DTD SVG 1.1//EN" "http://www.w3.org/Graphics/SVG/1.1/DTD/svg11.dtd">
<svg version="1.1" id="Layer_1" xmlns="http://www.w3.org/2000/svg" xmlns:xlink="http://www.w3.org/1999/xlink" x="0px" y="0px"
	 width="123.138px" height="112.746px" viewBox="0 0 123.138 112.746" enable-background="new 0 0 123.138 112.746"
	 xml:space="preserve">
<g>
	<path fill="#4848AA" d="M91.152,50.304c-0.095-0.965-0.487-2.428-1.812-3.918c-0.026-0.028-0.053-0.058-0.079-0.083l-1.886-1.802
		c0.002-0.045,0.016-0.088,0.016-0.131V30.407c0-1.597-1.302-2.896-2.897-2.896h-5.055c-1.598,0-2.896,1.3-2.896,2.896v3.732
		l-4.551-4.352c-0.639-0.576-2.371-1.911-4.66-1.911c-1.73,0-3.366,0.737-4.866,2.19L46.127,45.912
		c-0.771,0.747-1.275,1.501-1.616,2.197c-0.015,0.03-0.029,0.057-0.042,0.088c-0.438,0.926-0.585,1.741-0.622,2.269
		c-0.002,0.032-0.002,0.063-0.002,0.095v31.95c0,1.502,1.222,2.724,2.725,2.724h13.38c1.503,0,2.726-1.222,2.726-2.724v-5.228
		c0.017-0.086,0.025-0.175,0.025-0.266v-10.71h9.776v16.203c0,1.502,1.223,2.724,2.726,2.724h13.23c1.503,0,2.726-1.222,2.726-2.724
		V50.442C91.159,50.396,91.157,50.35,91.152,50.304 M79.439,30.354l5.109,0.054v11.389l-5.159-4.934L79.439,30.354z M64.445,32.108
		c0.951-0.922,1.922-1.389,2.887-1.389c1.305,0,2.363,0.824,2.727,1.151l16.136,15.433H48.773L64.445,32.108z M88.316,82.392H75.32
		V64.887c0-0.786-0.638-1.421-1.421-1.421h-12.62c-0.784,0-1.421,0.635-1.421,1.421v11.862c-0.018,0.087-0.025,0.176-0.025,0.269
		v5.374H46.688V50.612c0.011-0.127,0.035-0.286,0.077-0.466h41.437c0.015,0,0.028-0.004,0.043-0.004
		c0.035,0.143,0.059,0.271,0.071,0.377V82.392z"/>
</g>
</svg>
