<?xml version="1.0" encoding="utf-8"?>
<!-- Generator: Adobe Illustrator 19.2.1, SVG Export Plug-In . SVG Version: 6.00 Build 0)  -->
<svg version="1.1" id="Layer_1" xmlns="http://www.w3.org/2000/svg" xmlns:xlink="http://www.w3.org/1999/xlink" x="0px" y="0px"
	 viewBox="0 0 26 27.5" style="enable-background:new 0 0 26 27.5;" xml:space="preserve">
<style type="text/css">
	.st0{fill:#E7B435;}
	.st1{fill:#575656;}
</style>
<g>
	<ellipse class="st0" cx="13.1" cy="13.4" rx="11.8" ry="12.2"/>
	<g>
		<g>
			<polygon class="st1" points="13.1,19.3 7.4,13.3 8.8,11.9 13.1,16.3 24.4,4.6 25.8,6 			"/>
		</g>
		<g>
			<path class="st1" d="M23.8,11.1c0.2,0.8,0.3,1.7,0.3,2.6c0,6.3-4.9,11.5-11,11.5s-11-5.1-11-11.5c0-6.3,4.9-11.5,11-11.5
				c3,0,5.7,1.2,7.6,3.2l1.4-1.5C19.8,1.5,16.6,0,13,0C5.8,0,0,6.1,0,13.5C0,21,5.8,27,13,27s13-6.1,13-13.5c0-1.5-0.2-2.9-0.7-4.3
				L23.8,11.1z"/>
		</g>
	</g>
</g>
</svg>
