<?xml version="1.0" encoding="utf-8"?>
<!-- Generator: Adobe Illustrator 16.0.0, SVG Export Plug-In . SVG Version: 6.00 Build 0)  -->
<!DOCTYPE svg PUBLIC "-//W3C//DTD SVG 1.1//EN" "http://www.w3.org/Graphics/SVG/1.1/DTD/svg11.dtd">
<svg version="1.1" id="Layer_1" xmlns="http://www.w3.org/2000/svg" xmlns:xlink="http://www.w3.org/1999/xlink" x="0px" y="0px"
	 width="232px" height="86px" viewBox="0 0 232 86" enable-background="new 0 0 232 86" xml:space="preserve">
<g>
	<path fill-rule="evenodd" clip-rule="evenodd" fill="#575656" d="M147.665,46.43c-3.715,3.586-5.769,8.221-8.085,12.701
		c-0.559,1.081-0.587,3.129-2.426,2.638c-1.564-0.417-1.727-2.17-1.828-3.673c-0.25-3.709,1.618-6.689,3.318-9.725
		c0.984-1.756,2.004-3.492,3.009-5.235c0.65-0.38,0.845-0.973,0.615-1.641c-0.117-0.343-0.452-0.334-0.702-0.025
		c-5.645,3.631-8.683,9.28-11.592,15.021c-0.609,1.203-1.093,2.469-1.726,3.656c-0.676,1.265-1.745,1.674-2.549,0.279
		c-0.987-1.713-1.964-1.197-3.309-0.57c-3.333,1.551-6.729,2.416-10.402,0.835c-2.781-1.199-3.427-4-5.049-6.068
		c0-1.813,0-3.627,0-5.441c1.494-1.211,1.549-3.164,2.4-4.717c1.895-3.462,4.345-6.323,7.824-8.262
		c2.771-1.547,5.309-1.423,7.833,0.647c2.709,2.227,3.499,4.74,2.188,8.094c-2.011,5.154-6.312,7.897-11.569,6.932
		c-1.399-0.256-2.306-0.08-2.369,1.43c-0.087,2.075-0.07,4.274,2.591,4.813c1.726,0.35,3.373-0.229,4.829-1.199
		c2.58-1.72,4.749-3.797,6.027-6.721c1.952-4.466,4.315-8.721,6.976-12.801c0.636-0.975,0.992-2.581,2.57-2.308
		c1.46,0.253,1.616,1.715,1.916,2.922c0.101,0.409,0.176,0.823,0.295,1.381c1.415-1.002,2.645-1.999,3.991-2.798
		c3.228-1.914,4.7-1.632,6.549,1.558c0.707,1.218,1.196,1.021,2.067,0.487c1.441-0.884,2.819-1.94,4.369-2.565
		c2.746-1.106,4.316,0.021,4.655,2.95c0.348,3.022-0.969,5.498-2.41,7.96c-1.48,2.534-3.361,4.857-4.248,7.704
		c-0.329,1.057-0.701,2.332,0.5,3.093c1.275,0.813,2.089-0.342,2.917-1.036c1.511-1.266,2.408-2.966,3.201-4.74
		c2.075-4.656,4.388-9.195,7.135-13.491c0.818-1.275,1.208-3.358,3.017-3.363c2.225-0.008,1.649,2.548,2.534,3.812
		c8.516-4.63,8.516-4.63,11.386,0.404c1.763-1.228,3.455-2.584,5.499-3.324c2.634-0.953,4.131-0.103,4.667,2.649
		c0.435,2.231-0.209,4.265-1.277,6.184c-1.704,3.061-3.529,6.058-5.133,9.17c-0.587,1.14-1.283,2.74,0.183,3.699
		c1.591,1.039,2.41-0.641,3.327-1.512c2.087-1.989,3.348-4.529,4.501-7.127c2.263-5.095,5.649-9.273,10.351-12.289
		c2.671-1.713,5.513-2.927,8.395-0.385c0.875,0.771,1.28,0.387,1.888-0.286c1.913-2.119,2.827-0.833,3.521,1.099
		c0.987,2.747-0.173,5.117-1.387,7.426c-1.681,3.203-3.563,6.302-5.183,9.534c-0.55,1.101-1.771,2.758-0.421,3.655
		c1.553,1.031,2.638-0.796,3.53-1.834c1.319-1.535,2.377-3.294,3.564-4.945c0.463-0.644,0.979-1.427,1.896-1.102
		c0.997,0.351,1.129,1.292,1.082,2.254c-0.231,4.536-6.248,10.141-10.696,9.782c-2.438-0.196-3.614-2.372-5.141-3.904
		c-6.102,4.321-7.844,4.395-11.817,0.54c-0.303-0.687-0.61-0.631-0.914-0.003c-1.585,0.846-3.096,1.906-4.773,2.486
		c-2.5,0.865-4.952,0.474-6.883-1.497c-1.739-1.771-1.937-3.871-1.284-6.26c0.883-3.236,2.928-5.819,4.463-8.689
		c0.308-0.578,0.954-1.225,0.376-1.804c-0.801-0.802-1.416,0.09-1.946,0.572c-4.765,4.342-7.922,9.792-10.681,15.523
		c-0.548,1.139-0.711,3.17-2.388,2.764c-1.639-0.397-1.925-2.252-2-3.919c-0.115-2.482,0.791-4.655,1.928-6.74
		c1.457-2.674,3.028-5.285,4.547-7.923c0.396-0.583,1.455-1.18,0.753-1.855c-0.712-0.688-1.302,0.292-1.81,0.83
		c-5.587,4.063-8.588,9.976-11.429,16.001c-0.861,1.824-1.196,4.522-4.264,2.082c-0.857-0.685-1.923,0.335-2.826,0.693
		c-2.782,1.102-5.372,0.82-7.546-1.179c-2.192-2.011-2.172-4.603-1.098-7.175c0.862-2.065,1.91-4.053,2.872-6.075
		c1.208-1.605,2.674-3.074,3.112-5.786C151.111,42.613,149.187,44.305,147.665,46.43z M187.521,42.052
		c0.265-0.267,0.425-0.554,0.035-0.822c-0.038-0.026-0.292,0.262-0.442,0.406c-0.208,0.211-0.619,0.576-0.593,0.612
		C186.954,42.826,187.225,42.342,187.521,42.052z M212.584,40.334c-2.237-0.23-3.144,1.098-4.123,2.064
		c-3.728,3.68-6.873,7.745-7.785,13.108c-0.129,0.759-0.318,1.641,0.508,2.112c0.275,0.159,0.922-0.003,1.213-0.244
		C207.761,52.914,210.796,47.117,212.584,40.334z M122.518,39.55c-3.721,2.185-5.867,4.725-7.344,8.055
		C118.571,47.561,121.149,44.884,122.518,39.55z"/>
	<g>
		<path fill-rule="evenodd" clip-rule="evenodd" fill="#D49B31" d="M74.002,24.876c1.086,3.641-0.25,4.994-4.041,4.964
			c-15.548-0.122-31.096-0.037-46.646-0.066c-2.606-0.006-5.577,0.111-3.523-4.045c16.356-0.003,32.71,0.004,49.068-0.039
			c1.454-0.003,3.084,0.558,4.31-0.814C73.446,24.876,73.724,24.876,74.002,24.876z"/>
		<path fill-rule="evenodd" clip-rule="evenodd" fill="#D49B31" d="M73.169,24.876c-1.226,1.372-2.856,0.812-4.31,0.814
			c-16.357,0.042-32.712,0.035-49.068,0.039c-0.019-0.283-0.038-0.568-0.054-0.853C37.548,24.876,55.359,24.876,73.169,24.876z"/>
		<path fill-rule="evenodd" clip-rule="evenodd" fill="#D49B31" d="M46.875,55.051C37,55.053,27.125,55.073,17.25,55.024
			c-1.145-0.006-2.705,0.627-3.307-0.917c-0.564-1.459,0.932-2.091,1.628-3.072c4.167-5.872,9.696-7.593,16.856-7.236
			c11.792,0.586,23.638,0.146,35.46,0.167c2.809,0.005,11.595,6.532,12.089,9.173c0.513,2.757-1.825,1.86-3.057,1.871
			C66.906,55.085,56.891,55.051,46.875,55.051z"/>
		<path fill-rule="evenodd" clip-rule="evenodd" fill="#D49B31" d="M46.488,42.327c-7.785,0-15.569,0.011-23.354-0.01
			c-1.784-0.005-4.031,0.257-4.023-2.369c0.01-2.512,2.122-2.471,3.991-2.471c15.845,0.008,31.693,0.007,47.541,0
			c1.698,0,3.629-0.171,3.758,2.185c0.139,2.577-1.777,2.685-3.725,2.676C62.614,42.309,54.551,42.327,46.488,42.327z"/>
		<path fill-rule="evenodd" clip-rule="evenodd" fill="#D49B31" d="M46.524,35.85c-7.91,0-15.818,0.003-23.728-0.003
			c-1.659-0.002-3.65,0.257-3.662-2.199c-0.01-2.458,1.964-2.213,3.634-2.213c15.958,0,31.916-0.006,47.872,0.008
			c1.604,0.002,3.583-0.425,3.598,2.178c0.015,2.599-1.962,2.214-3.57,2.217C62.619,35.863,54.571,35.849,46.524,35.85z"/>
		<path fill-rule="evenodd" clip-rule="evenodd" fill="#D49B31" d="M79.018,63.328c-0.005,1.39-0.013,2.781-0.002,4.172
			c0.015,1.662-1.022,2.136-2.435,2.144c-1.372,0.008-2.541-0.334-2.557-2.02c-0.031-3.059-0.018-6.117-0.028-9.177
			c-0.003-1.795,1.071-2.492,2.668-2.437c1.676,0.058,2.446,1.021,2.373,2.73C78.97,60.268,79.024,61.798,79.018,63.328z"/>
		<path fill-rule="evenodd" clip-rule="evenodd" fill="#D49B31" d="M14.584,62.751c0.003-1.386,0.031-2.772-0.005-4.159
			c-0.048-1.728,0.828-2.594,2.483-2.603c1.677-0.009,2.548,0.948,2.565,2.603c0.029,2.771,0.01,5.543,0.007,8.315
			c-0.005,1.855-0.858,2.838-2.799,2.754c-1.806-0.075-2.335-1.12-2.266-2.754C14.628,65.523,14.583,64.136,14.584,62.751z"/>
		<path fill-rule="evenodd" clip-rule="evenodd" fill="#D49B31" d="M29.087,60.425c-0.281,1.539,0.781,3.758-2.251,3.847
			c-3.381,0.099-2.757-2.265-2.824-4.246c-0.067-2.015-0.059-4.15,2.764-4.003C29.754,56.178,28.907,58.618,29.087,60.425z"/>
		<path fill-rule="evenodd" clip-rule="evenodd" fill="#D49B31" d="M69.155,60.505c-0.108,1.782,0.537,3.792-2.41,3.792
			c-3.085,0-2.643-2.078-2.666-3.955c-0.023-1.99,0.167-4.348,2.582-4.381C69.676,55.921,69.008,58.662,69.155,60.505z"/>
	</g>
</g>
</svg>
