<?xml version="1.0" encoding="utf-8"?>
<!-- Generator: Adobe Illustrator 16.0.0, SVG Export Plug-In . SVG Version: 6.00 Build 0)  -->
<!DOCTYPE svg PUBLIC "-//W3C//DTD SVG 1.1//EN" "http://www.w3.org/Graphics/SVG/1.1/DTD/svg11.dtd">
<svg version="1.1" id="Layer_1" xmlns="http://www.w3.org/2000/svg" xmlns:xlink="http://www.w3.org/1999/xlink" x="0px" y="0px"
	 width="123.138px" height="112.746px" viewBox="0 0 123.138 112.746" enable-background="new 0 0 123.138 112.746"
	 xml:space="preserve">
<g>
	<path fill="#E7B435" d="M92.76,45.889H77.712V33.683c0-3.194-2.6-5.794-5.794-5.794H36.889c-3.194,0-5.794,2.6-5.794,5.794v21.061
		c0,3.194,2.6,5.794,5.794,5.794h3.438l4.298,5.722c0.283,0.378,0.728,0.6,1.199,0.6s0.916-0.222,1.199-0.6l4.297-5.722h0.616
		v12.205c0,3.194,2.599,5.794,5.794,5.794h20.599l4.298,5.723c0.282,0.378,0.728,0.6,1.198,0.6c0.473,0,0.916-0.222,1.2-0.6
		l4.297-5.723h3.438c3.193,0,5.794-2.6,5.794-5.794V51.682C98.554,48.487,95.953,45.889,92.76,45.889 M50.57,57.537
		c-0.472,0-0.916,0.222-1.2,0.6l-3.547,4.724l-3.548-4.724c-0.284-0.378-0.728-0.6-1.2-0.6h-4.187c-1.541,0-2.794-1.253-2.794-2.794
		V33.683c0-1.541,1.253-2.794,2.794-2.794h35.029c1.541,0,2.794,1.253,2.794,2.794v13.706v7.354c0,1.541-1.253,2.794-2.794,2.794
		H53.436H50.57z M95.554,72.742c0,1.541-1.253,2.794-2.794,2.794h-4.188c-0.472,0-0.916,0.222-1.2,0.601l-3.548,4.724l-3.547-4.724
		c-0.284-0.379-0.728-0.601-1.2-0.601H57.729c-1.541,0-2.794-1.253-2.794-2.794V60.537h16.982c1.116,0,2.157-0.323,3.043-0.873
		h11.344c0.828,0,1.5-0.672,1.5-1.5s-0.672-1.5-1.5-1.5h-8.927c0.212-0.602,0.334-1.247,0.334-1.921v-5.854H92.76
		c1.541,0,2.794,1.253,2.794,2.793V72.742z"/>
	<path fill="#E7B435" d="M86.305,65.072H64.229c-0.828,0-1.5,0.672-1.5,1.5s0.672,1.5,1.5,1.5h22.076c0.828,0,1.5-0.672,1.5-1.5
		S87.133,65.072,86.305,65.072"/>
	<path fill="#E7B435" d="M66.813,48.572c0-0.828-0.672-1.5-1.5-1.5H43.343c-0.827,0-1.5,0.672-1.5,1.5s0.673,1.5,1.5,1.5h21.971
		C66.142,50.072,66.813,49.4,66.813,48.572"/>
	<path fill="#E7B435" d="M43.344,41.665h13.238c0.827,0,1.5-0.672,1.5-1.5s-0.673-1.5-1.5-1.5H43.344c-0.828,0-1.5,0.672-1.5,1.5
		S42.516,41.665,43.344,41.665"/>
</g>
</svg>
