<?xml version="1.0" encoding="utf-8"?>
<!-- Generator: Adobe Illustrator 19.2.1, SVG Export Plug-In . SVG Version: 6.00 Build 0)  -->
<svg version="1.1" id="Layer_1" xmlns="http://www.w3.org/2000/svg" xmlns:xlink="http://www.w3.org/1999/xlink" x="0px" y="0px"
	 viewBox="0 0 20.5 22.6" style="enable-background:new 0 0 20.5 22.6;" xml:space="preserve">
<style type="text/css">
	.st0{fill:#FFFFFF;}
</style>
<g id="WC7FpL_9_">
	<g>
		<path class="st0" d="M14.3,21.7c-1.4,0-2.5-0.3-3.6-0.8c-2.3-1.1-4.1-2.7-5.7-4.6c-1.4-1.6-2.7-3.4-3.5-5.4c-0.8-2-0.9-4-0.1-6.1
			C2,3.3,3.1,2.4,4.3,1.5c0.5-0.4,1.1-0.3,1.6,0.1C7.1,2.7,8,4.1,8.4,5.7C8.6,6.3,8.3,7,7.8,7.4C7.4,7.8,7,8.1,6.6,8.4
			c-0.8,0.6-1,1.2-0.7,2.2c0.3,1,0.9,1.8,1.5,2.5c0.8,0.9,1.7,1.7,2.5,2.5c0.2,0.2,0.5,0.4,0.8,0.5c0.8,0.4,1.5,0.4,2.2-0.3
			c0.3-0.3,0.5-0.6,0.8-0.8c0.8-0.8,1.8-1,2.8-0.4c1,0.7,1.9,1.5,2.8,2.4c0.7,0.8,0.6,1.6-0.2,2.3c-0.2,0.2-0.4,0.4-0.6,0.6
			C17.4,21.2,15.8,21.7,14.3,21.7z"/>
	</g>
</g>
</svg>
