<?xml version="1.0" encoding="utf-8"?>
<!-- Generator: Adobe Illustrator 19.2.1, SVG Export Plug-In . SVG Version: 6.00 Build 0)  -->
<svg version="1.1" id="Layer_1" xmlns="http://www.w3.org/2000/svg" xmlns:xlink="http://www.w3.org/1999/xlink" x="0px" y="0px"
	 viewBox="0 0 13.7 18.5" style="enable-background:new 0 0 13.7 18.5;" xml:space="preserve">
<style type="text/css">
	.st0{fill:#4848AA;}
</style>
<g>
	<path class="st0" d="M12.9,14.9l-1.9-3.5c1.2-1.1,1.9-2.7,1.9-4.5c0-3.4-2.8-6.2-6.2-6.2c-3.4,0-6.2,2.8-6.2,6.2
		c0,1.9,0.9,3.6,2.2,4.8l-1.7,3.3c-0.2,0.3-0.2,0.6-0.1,0.9c0.1,0.2,0.4,0.3,0.6,0.3c0,0,0,0,0.1,0c0,0,0,0,0.1,0l1.8-0.4l0.7,1.6
		c0.2,0.5,0.5,0.6,0.7,0.6c0.4,0,0.6-0.4,0.7-0.6c0,0,0,0,0,0L7,14.8l1.3,2.5c0,0,0,0,0,0v0c0.1,0.2,0.3,0.6,0.7,0.6
		c0.2,0,0.5-0.1,0.7-0.6l0.7-1.6l1.8,0.4c0,0,0,0,0.1,0c0,0,0,0,0.1,0c0.3,0,0.5-0.1,0.6-0.3C13.1,15.5,13.1,15.2,12.9,14.9 M7,13
		L7,13L7,13L7,13z M1.4,6.8c0-3,2.4-5.4,5.4-5.4s5.4,2.4,5.4,5.4c0,1.7-0.8,3.1-1.9,4.1c-0.1,0.1-0.2,0.1-0.2,0.2
		c-0.1,0-0.1,0.1-0.2,0.1c-0.1,0.1-0.2,0.1-0.3,0.2c-0.1,0-0.1,0.1-0.2,0.1c-0.1,0.1-0.2,0.1-0.3,0.1c-0.1,0-0.1,0.1-0.2,0.1
		c-0.1,0-0.2,0.1-0.3,0.1c-0.1,0-0.1,0-0.2,0.1C8.5,12,8.4,12,8.3,12c-0.1,0-0.1,0-0.2,0.1c-0.1,0-0.2,0-0.3,0.1c-0.1,0-0.1,0-0.2,0
		c-0.1,0-0.3,0-0.4,0.1c-0.1,0-0.3,0-0.4,0c-0.1,0-0.3,0-0.4,0c0,0,0,0,0,0c0,0,0,0,0,0c0,0,0,0-0.1,0c-0.1,0-0.1,0-0.2,0
		c-0.1,0-0.2,0-0.3-0.1c-0.1,0-0.1,0-0.2,0c-0.1,0-0.2,0-0.3-0.1c-0.1,0-0.1,0-0.2-0.1c-0.1,0-0.2-0.1-0.3-0.1
		c-0.2-0.1-0.3-0.1-0.5-0.2c0,0-0.1,0-0.1,0c-0.1-0.1-0.2-0.1-0.3-0.2c0,0-0.1,0-0.1,0c-0.1-0.1-0.2-0.1-0.3-0.2
		C2.3,10.2,1.4,8.6,1.4,6.8 M5,16.9L4.2,15c-0.1-0.2-0.2-0.3-0.4-0.3c0,0-0.1,0-0.1,0l-2,0.4l1.7-3.2c0.5,0.3,1,0.6,1.6,0.7
		c0,0,0,0,0.1,0c0.1,0,0.2,0.1,0.3,0.1c0,0,0,0,0.1,0c0.1,0,0.3,0,0.4,0.1c0,0,0.1,0,0.1,0c0,0,0.1,0,0.1,0l0.5,0.9L5,16.9z
		 M10.2,14.8c-0.2,0-0.4,0.1-0.5,0.2L9,16.9l-1.6-3l0.5-1c0.9-0.2,1.7-0.5,2.5-1.1c0,0,0,0,0,0l1.8,3.4L10.2,14.8z"/>
	<path class="st0" d="M6.8,9.9c1.7,0,3.1-1.4,3.1-3.1c0-1.7-1.4-3.1-3.1-3.1c-1.7,0-3.1,1.4-3.1,3.1C3.7,8.5,5.1,9.9,6.8,9.9
		 M6.8,4.5c1.3,0,2.3,1,2.3,2.3s-1,2.3-2.3,2.3s-2.3-1-2.3-2.3S5.5,4.5,6.8,4.5"/>
</g>
</svg>
