<?xml version="1.0" encoding="utf-8"?>
<!-- Generator: Adobe Illustrator 16.0.0, SVG Export Plug-In . SVG Version: 6.00 Build 0)  -->
<!DOCTYPE svg PUBLIC "-//W3C//DTD SVG 1.1//EN" "http://www.w3.org/Graphics/SVG/1.1/DTD/svg11.dtd">
<svg version="1.1" id="Layer_1" xmlns="http://www.w3.org/2000/svg" xmlns:xlink="http://www.w3.org/1999/xlink" x="0px" y="0px"
	 width="59.319px" height="250.054px" viewBox="0 0 59.319 250.054" enable-background="new 0 0 59.319 250.054"
	 xml:space="preserve">
<g>
	<g id="elr1CP.tif_3_">
		<g>
			<path fill-rule="evenodd" clip-rule="evenodd" fill="#D49B31" d="M30.114,10.456c1.821,2.13,3.637,4.253,5.458,6.383
				c-1.711,2.3-3.417,4.594-5.133,6.898c-0.178-0.211-0.346-0.41-0.514-0.609c-0.449-0.531-0.898-1.063-1.347-1.596
				c-0.38-0.451-0.759-0.902-1.14-1.354c-0.406-0.48-0.812-0.961-1.217-1.441c-0.397-0.47-0.793-0.94-1.191-1.408
				c-0.048-0.056-0.037-0.095,0.002-0.146c0.376-0.495,0.75-0.991,1.124-1.488c0.521-0.691,1.04-1.383,1.561-2.074
				c0.483-0.641,0.967-1.279,1.45-1.919c0.29-0.384,0.579-0.769,0.868-1.151C30.061,10.521,30.085,10.491,30.114,10.456z"/>
		</g>
	</g>
	<g id="elr1CP.tif_2_">
		<g>
			<path fill-rule="evenodd" clip-rule="evenodd" fill="#D49B31" d="M30.114,218.292c1.821,2.131,3.637,4.254,5.458,6.385
				c-1.711,2.299-3.417,4.593-5.133,6.896c-0.178-0.211-0.346-0.409-0.514-0.607c-0.449-0.532-0.898-1.064-1.347-1.596
				c-0.38-0.451-0.759-0.903-1.14-1.354c-0.406-0.48-0.812-0.96-1.217-1.441c-0.397-0.47-0.793-0.94-1.191-1.408
				c-0.048-0.056-0.037-0.095,0.002-0.146c0.376-0.496,0.75-0.992,1.124-1.488c0.521-0.691,1.04-1.384,1.561-2.075
				c0.483-0.64,0.967-1.279,1.45-1.919c0.29-0.384,0.579-0.768,0.868-1.15C30.061,218.356,30.085,218.328,30.114,218.292z"/>
		</g>
	</g>
	<g>
		<rect x="29.786" y="18.655" fill="#D49B31" width="1" height="204.917"/>
	</g>
</g>
</svg>
