<?xml version="1.0" encoding="utf-8"?>
<!-- Generator: Adobe Illustrator 19.2.1, SVG Export Plug-In . SVG Version: 6.00 Build 0)  -->
<svg version="1.1" id="Layer_1" xmlns="http://www.w3.org/2000/svg" xmlns:xlink="http://www.w3.org/1999/xlink" x="0px" y="0px"
	 viewBox="0 0 67.4 31.1" style="enable-background:new 0 0 67.4 31.1;" xml:space="preserve">
<style type="text/css">
	.st0{fill:#FFFFFF;}
</style>
<g>
	<g>
		<g>
			<g>
				<path class="st0" d="M58.9,11.5c-0.5,0.2-1,0.4-1.5,0.4c0.5-0.3,1-0.8,1.2-1.5c-0.5,0.3-1.1,0.5-1.7,0.6
					c-0.5-0.5-1.2-0.8-1.9-0.8c-1.5,0-2.6,1.2-2.6,2.6c0,0.2,0,0.4,0.1,0.6c-2.2-0.1-4.2-1.2-5.5-2.8c-0.2,0.4-0.4,0.8-0.4,1.3
					c0,0.9,0.5,1.7,1.2,2.2c-0.4,0-0.8-0.1-1.2-0.3c0,0,0,0,0,0c0,1.3,0.9,2.4,2.1,2.6c-0.2,0.1-0.5,0.1-0.7,0.1c-0.2,0-0.3,0-0.5,0
					c0.3,1.1,1.3,1.8,2.5,1.8c-0.9,0.7-2,1.1-3.3,1.1c-0.2,0-0.4,0-0.6,0c1.2,0.8,2.6,1.2,4.1,1.2c4.9,0,7.5-4,7.5-7.5
					c0-0.1,0-0.2,0-0.3C58.1,12.5,58.5,12,58.9,11.5z"/>
			</g>
			<g>
				<path class="st0" d="M52.4,29.7c-7.8,0-14.2-6.4-14.2-14.2S44.6,1.2,52.4,1.2s14.2,6.4,14.2,14.2S60.2,29.7,52.4,29.7z
					 M52.4,2.4c-7.2,0-13.1,5.9-13.1,13.1s5.9,13.1,13.1,13.1c7.2,0,13.1-5.9,13.1-13.1S59.6,2.4,52.4,2.4z"/>
			</g>
		</g>
		<g>
			<g>
				<path class="st0" d="M15.4,29.7c-0.1,0-0.2,0-0.2,0c-3.8-0.1-7.3-1.6-10-4.3c-2.6-2.7-4.1-6.3-4-10.1C1.3,11.5,2.8,8,5.4,5.3
					c2.7-2.7,6.4-4.1,10.2-4.1c3.8,0.1,7.3,1.6,10,4.3c2.6,2.7,4.1,6.3,4,10.1c-0.1,3.8-1.6,7.3-4.2,9.9
					C22.7,28.2,19.2,29.7,15.4,29.7z M15.4,2.4c-3.4,0-6.7,1.3-9.1,3.7c-2.5,2.4-3.8,5.6-3.9,9.1C2.3,18.7,3.6,22,6,24.5
					c2.4,2.5,5.7,3.9,9.2,4c3.5,0.1,6.9-1.3,9.4-3.7c2.5-2.4,3.8-5.6,3.9-9.1c0.1-3.5-1.2-6.8-3.7-9.3s-5.7-3.9-9.2-4
					C15.6,2.4,15.5,2.4,15.4,2.4z"/>
			</g>
			<g>
				<path class="st0" d="M16.6,23.2h-3.2v-7.8h-1.6v-2.7h1.6v-1.6c0-2.2,0.9-3.5,3.5-3.5H19v2.7h-1.3c-1,0-1.1,0.4-1.1,1.1l0,1.3H19
					l-0.3,2.7h-2.1L16.6,23.2L16.6,23.2z"/>
			</g>
		</g>
	</g>
</g>
</svg>
