<?xml version="1.0" encoding="utf-8"?>
<!-- Generator: Adobe Illustrator 16.0.0, SVG Export Plug-In . SVG Version: 6.00 Build 0)  -->
<!DOCTYPE svg PUBLIC "-//W3C//DTD SVG 1.1//EN" "http://www.w3.org/Graphics/SVG/1.1/DTD/svg11.dtd">
<svg version="1.1" id="Layer_1" xmlns="http://www.w3.org/2000/svg" xmlns:xlink="http://www.w3.org/1999/xlink" x="0px" y="0px"
	 width="123.138px" height="112.746px" viewBox="0 0 123.138 112.746" enable-background="new 0 0 123.138 112.746"
	 xml:space="preserve">
<g>
	<path fill="#4848AA" d="M70.125,45.769H46.952c-0.778,0-1.41,0.631-1.41,1.409c0,0.779,0.632,1.41,1.41,1.41h23.173
		c0.778,0,1.41-0.631,1.41-1.41C71.535,46.399,70.903,45.769,70.125,45.769"/>
	<path fill="#4848AA" d="M47.354,40.971h22.048c1.251,0,2.268-1.018,2.268-2.268v-6.189c0-1.249-1.017-2.266-2.268-2.266H47.354
		c-1.25,0-2.267,1.017-2.267,2.266v6.189C45.087,39.953,46.104,40.971,47.354,40.971 M47.907,33.067H68.85v5.083H47.907V33.067z"/>
	<path fill="#4848AA" d="M82.986,57.37c-0.698-1.29-1.641-2.395-2.753-3.27V25.503c0-2.062-1.678-3.738-3.74-3.738H41.048
		c-2.062,0-3.739,1.677-3.739,3.738v50.519c0,2.062,1.676,3.738,3.739,3.738h25.472l-0.011,2.314c0,0.052,0.002,0.104,0.006,0.154
		c0.135,1.279,1.017,1.852,1.835,1.852c0.732,0,1.324-0.425,1.705-0.744l3.636-3.039l3.789,3.23
		c0.477,0.369,0.967,0.558,1.455,0.558c0.319,0,1.91-0.119,1.924-2.48l0.056-11.555C84.317,66.858,85.305,61.662,82.986,57.37
		 M78.599,68.345c-0.189,0.154-0.383,0.3-0.58,0.433c-0.203,0.136-0.413,0.266-0.633,0.386c-0.318,0.17-0.649,0.313-0.986,0.436
		c-0.029,0.01-0.059,0.021-0.087,0.03c-0.013,0.005-0.025,0.008-0.038,0.013c-2.113,0.722-4.515,0.488-6.442-0.614
		c-0.021-0.013-0.042-0.025-0.064-0.038c-0.305-0.178-0.598-0.379-0.875-0.602c-0.236-0.188-0.46-0.394-0.673-0.611
		c-0.052-0.053-0.103-0.11-0.152-0.166c-0.166-0.18-0.325-0.367-0.475-0.563c-0.05-0.066-0.103-0.134-0.151-0.204
		c-0.183-0.255-0.355-0.521-0.507-0.801c-0.623-1.153-0.918-2.395-0.922-3.623c0-0.002,0-0.005,0-0.007
		c0-0.006-0.003-0.012-0.003-0.018c-0.001-2.746,1.465-5.409,4.045-6.805c0.305-0.164,0.62-0.306,0.942-0.425
		c0.036-0.014,0.073-0.022,0.11-0.036c1.618-0.572,3.408-0.588,5.032-0.061c0.013,0.005,0.026,0.01,0.039,0.014
		c0.294,0.099,0.58,0.216,0.86,0.348c0.074,0.035,0.146,0.074,0.22,0.112c0.221,0.113,0.438,0.236,0.646,0.371
		c1.066,0.692,1.974,1.637,2.601,2.798C82.29,62.014,81.405,66.052,78.599,68.345 M41.048,76.94c-0.507,0-0.919-0.413-0.919-0.919
		V25.503c0-0.507,0.412-0.919,0.919-0.919h35.445c0.508,0,0.92,0.412,0.92,0.919v27.012c-0.163-0.062-0.333-0.104-0.498-0.157
		c-0.17-0.053-0.337-0.112-0.509-0.158c-0.249-0.064-0.503-0.109-0.756-0.156c-0.406-0.076-0.815-0.125-1.232-0.152
		c-0.116-0.008-0.231-0.021-0.349-0.023c-0.12-0.005-0.237-0.025-0.357-0.025c-0.204,0-0.406,0.027-0.609,0.039
		c-0.051,0.002-0.102,0.005-0.152,0.01c-0.322,0.023-0.642,0.06-0.96,0.113c-0.083,0.014-0.165,0.031-0.249,0.047
		c-0.283,0.055-0.566,0.113-0.845,0.192c-0.162,0.044-0.318,0.1-0.479,0.152c-0.205,0.067-0.413,0.13-0.613,0.21
		c-0.373,0.148-0.738,0.313-1.09,0.504c-0.158,0.086-0.305,0.183-0.455,0.275H46.952c-0.778,0-1.41,0.632-1.41,1.41
		c0,0.779,0.632,1.41,1.41,1.41h18.242c-0.685,0.947-1.223,2.005-1.566,3.158c-0.163,0.541-0.267,1.09-0.34,1.64H46.952
		c-0.778,0-1.41,0.631-1.41,1.409c0,0.779,0.632,1.41,1.41,1.41h16.341c0.121,0.867,0.344,1.722,0.683,2.545
		c0.006,0.016,0.01,0.03,0.016,0.045c0.137,0.329,0.29,0.652,0.462,0.97c0.209,0.389,0.448,0.755,0.701,1.109
		c0.042,0.059,0.082,0.117,0.124,0.174c0.015,0.021,0.028,0.042,0.043,0.062h-18.37c-0.778,0-1.41,0.633-1.41,1.41
		c0,0.778,0.632,1.41,1.41,1.41h19.609l-0.026,5.394H41.048z M78.047,80.305l-3.431-2.926c-0.264-0.225-0.589-0.337-0.915-0.337
		c-0.321,0-0.644,0.11-0.904,0.328l-3.459,2.892l0.041-8.292c0.025,0.01,0.051,0.019,0.074,0.028
		c0.067,0.03,0.133,0.061,0.199,0.089c0.016,0.007,0.03,0.015,0.046,0.021c0.032,0.014,0.066,0.019,0.101,0.029
		c0.027,0.012,0.057,0.02,0.083,0.03c0.02,0.007,0.032,0.021,0.052,0.029c0.119,0.046,0.241,0.084,0.361,0.127
		c0.06,0.021,0.119,0.043,0.18,0.062c0.034,0.012,0.068,0.026,0.104,0.036c0.018,0.006,0.036,0.004,0.054,0.009
		c0.156,0.047,0.312,0.094,0.47,0.135c0.125,0.032,0.25,0.066,0.378,0.094l0.001,0.001h0.002c0.02,0.004,0.038,0.003,0.058,0.006
		c0.054,0.011,0.11,0.015,0.165,0.026c0.032,0.008,0.057,0.027,0.09,0.033c0.097,0.019,0.194,0.027,0.292,0.043
		c0.118,0.019,0.235,0.038,0.355,0.053c0.075,0.01,0.148,0.025,0.224,0.033c0.042,0.005,0.084,0.006,0.126,0.006
		c0.003,0,0.006,0.003,0.01,0.003c0.259,0.023,0.517,0.036,0.776,0.041h0.022c0.009,0,0.017-0.002,0.024-0.002
		c0.034,0,0.068,0.006,0.102,0.006c0.044,0,0.087-0.007,0.13-0.008c0.002,0,0.005,0.001,0.007,0.001h0.02
		c0.217-0.004,0.434-0.014,0.649-0.029c0.023-0.002,0.043-0.015,0.066-0.018c0.018-0.002,0.037-0.002,0.056-0.004
		c0.007,0,0.015,0.004,0.021,0.004c0.05,0,0.099-0.003,0.149-0.008c0.029-0.002,0.06-0.01,0.089-0.014
		c0.108-0.012,0.214-0.029,0.321-0.046c0.167-0.022,0.336-0.04,0.503-0.073c0.012-0.003,0.021-0.007,0.035-0.01
		c0.004-0.001,0.009-0.001,0.015-0.002c0.108-0.022,0.216-0.055,0.323-0.08c0.115-0.027,0.229-0.054,0.344-0.085
		c0.066-0.019,0.133-0.03,0.199-0.05c0.028-0.008,0.051-0.027,0.077-0.037c0.051-0.016,0.102-0.025,0.152-0.042
		c0.013-0.004,0.026-0.002,0.039-0.005c0.017-0.006,0.033-0.013,0.049-0.018c0.084-0.027,0.165-0.061,0.248-0.089
		c0.04-0.015,0.081-0.029,0.12-0.043c0.142-0.053,0.281-0.108,0.42-0.167c0.031-0.01,0.062-0.016,0.092-0.027
		c0.034-0.016,0.066-0.033,0.099-0.049c0.045-0.02,0.092-0.033,0.136-0.053L78.047,80.305z"/>
</g>
</svg>
